{
  "accessors": [
    {
      "bufferView": 2,
      "componentType": 5126,
      "count": 22648,
      "max": [
        -0.061995625495910645,
        0.2738032042980194,
        0.28323936462402344
      ],
      "min": [
        -0.40924084186553955,
        -0.04629072546958923,
        -0.001852482557296753
      ],
      "type": "VEC3"
    },
    {
      "bufferView": 2,
      "byteOffset": 271776,
      "componentType": 5126,
      "count": 22648,
      "max": [
        0.999987781047821,
        0.9999960660934448,
        0.999945342540741
      ],
      "min": [
        -0.9999995827674866,
        -0.9999961853027344,
        -0.999998927116394
      ],
      "type": "VEC3"
    },
    {
      "bufferView": 3,
      "componentType": 5126,
      "count": 22648,
      "max": [
        0.9991682171821594,
        0.9999758005142212,
        0.9999576807022095,
        1.0
      ],
      "min": [
        -0.999899685382843,
        -0.9999924898147583,
        -0.9999785423278809,
        -1.0
      ],
      "type": "VEC4"
    },
    {
      "bufferView": 1,
      "componentType": 5126,
      "count": 22648,
      "max": [
        0.9999279379844666,
        0.9985127449035645
      ],
      "min": [
        7.209181785583496e-05,
        7.209181785583496e-05
      ],
      "type": "VEC2"
    },
    {
      "bufferView": 0,
      "componentType": 5125,
      "count": 113382,
      "type": "SCALAR"
    }
  ],
  "asset": {
    "extras": {
      "author": "Museum of Engineering and Technology, Krakow (https://sketchfab.com/mitkrakow)",
      "license": "CC-BY-NC-SA-4.0 (http://creativecommons.org/licenses/by-nc-sa/4.0/)",
      "source": "https://sketchfab.com/3d-models/protos-v-st-180-vacuum-cleaner-601f032aeb204ac3a5ea4ace61414a06",
      "title": "Protos V. ST. 180 vacuum cleaner"
    },
    "generator": "Sketchfab-13.17.0",
    "version": "2.0"
  },
  "bufferViews": [
    {
      "buffer": 0,
      "byteLength": 453528,
      "name": "floatBufferViews",
      "target": 34963
    },
    {
      "buffer": 0,
      "byteLength": 181184,
      "byteOffset": 453528,
      "byteStride": 8,
      "name": "floatBufferViews",
      "target": 34962
    },
    {
      "buffer": 0,
      "byteLength": 543552,
      "byteOffset": 634712,
      "byteStride": 12,
      "name": "floatBufferViews",
      "target": 34962
    },
    {
      "buffer": 0,
      "byteLength": 362368,
      "byteOffset": 1178264,
      "byteStride": 16,
      "name": "floatBufferViews",
      "target": 34962
    }
  ],
  "buffers": [
    {
      "byteLength": 1540632,
      "uri": "scene.bin"
    }
  ],
  "images": [
    {
      "uri": "textures/Material.001_baseColor.jpeg"
    },
    {
      "uri": "textures/Material.001_metallicRoughness.png"
    },
    {
      "uri": "textures/Material.001_normal.jpeg"
    }
  ],
  "materials": [
    {
      "doubleSided": true,
      "name": "Material.001",
      "normalTexture": {
        "index": 2
      },
      "pbrMetallicRoughness": {
        "baseColorTexture": {
          "index": 0
        },
        "metallicRoughnessTexture": {
          "index": 1
        }
      }
    }
  ],
  "meshes": [
    {
      "name": "EXPORT_Material.001_0",
      "primitives": [
        {
          "attributes": {
            "NORMAL": 1,
            "POSITION": 0,
            "TANGENT": 2,
            "TEXCOORD_0": 3
          },
          "indices": 4,
          "material": 0,
          "mode": 4
        }
      ]
    }
  ],
  "nodes": [
    {
      "children": [
        1
      ],
      "matrix": [
        1.0,
        0.0,
        0.0,
        0.0,
        0.0,
        2.220446049250313e-16,
        -1.0,
        0.0,
        0.0,
        1.0,
        2.220446049250313e-16,
        0.0,
        0.0,
        0.0,
        0.0,
        1.0
      ],
      "name": "Sketchfab_model"
    },
    {
      "children": [
        2
      ],
      "matrix": [
        1.0,
        0.0,
        0.0,
        0.0,
        0.0,
        0.0,
        1.0,
        0.0,
        0.0,
        -1.0,
        0.0,
        0.0,
        0.0,
        0.0,
        0.0,
        1.0
      ],
      "name": "817.fbx"
    },
    {
      "children": [
        3
      ],
      "name": "RootNode"
    },
    {
      "children": [
        4
      ],
      "matrix": [
        8.90250116304402,
        -99.55720117826763,
        3.0178867959383324,
        0.0,
        -4.4227373241501056e-05,
        -3.0299215981824723,
        -99.95408733567083,
        0.0,
        99.60294661671632,
        8.89841381062617,
        -0.2697828782180798,
        0.0,
        -10.989649772644043,
        -7.326432228088379,
        9.005406379699707,
        1.0
      ],
      "name": "EXPORT"
    },
    {
      "mesh": 0,
      "name": "EXPORT_Material.001_0"
    }
  ],
  "samplers": [
    {
      "magFilter": 9729,
      "minFilter": 9987,
      "wrapS": 10497,
      "wrapT": 10497
    }
  ],
  "scene": 0,
  "scenes": [
    {
      "name": "Sketchfab_Scene",
      "nodes": [
        0
      ]
    }
  ],
  "textures": [
    {
      "sampler": 0,
      "source": 0
    },
    {
      "sampler": 0,
      "source": 1
    },
    {
      "sampler": 0,
      "source": 2
    }
  ]
}
